<svg xmlns="http://www.w3.org/2000/svg" viewBox="0 0 512 512">
  <title>Nephrite</title>
  <defs>
    <clipPath id="stone">
      <path d="M246 78C356 66 446 138 446 246C446 360 360 440 250 436C142 432 66 360 66 256C66 158 140 90 246 78Z"/>
    </clipPath>
    <!-- Seams between bands are cut out, so the mark sits on any background. -->
    <mask id="seams" maskUnits="userSpaceOnUse" x="0" y="0" width="512" height="512">
      <rect width="512" height="512" fill="#fff"/>
      <g fill="none" stroke="#000" stroke-width="18">
        <path d="M0 214C190 130 330 262 512 178"/>
        <path d="M0 336C190 252 330 384 512 300"/>
      </g>
    </mask>
  </defs>
  <g clip-path="url(#stone)" mask="url(#seams)">
    <!-- Forest, Jade and Mint: one band per theme variant. -->
    <rect width="512" height="512" fill="#1f6b45"/>
    <path d="M0 214C190 130 330 262 512 178V300C330 384 190 252 0 336Z" fill="#3db87a"/>
    <path d="M0 0H512V178C330 262 190 130 0 214Z" fill="#6bc4a8"/>
  </g>
</svg>
